<svg width="19" height="18" viewBox="0 0 19 18" fill="none" xmlns="http://www.w3.org/2000/svg">
<path fill-rule="evenodd" clip-rule="evenodd" d="M7.0796 0.675842C7.87646 0.67668 8.63561 1.05709 9.11155 1.69307L9.87489 2.70863C10.117 3.03039 10.5016 3.22227 10.9038 3.22311H13.2743C16.5103 3.22311 18.0178 4.88134 18.0178 8.44165L17.9943 12.6036C17.9935 15.9284 15.9272 17.9947 12.6006 17.9947H6.07996C2.74673 17.9947 0.6754 15.9276 0.6754 12.6011V6.06616C0.6754 2.48909 2.2666 0.675842 5.40376 0.675842H7.0796ZM7.07876 1.93272H5.40376C2.97045 1.93272 1.93227 3.16948 1.93227 6.06616V12.6011C1.93227 15.269 3.40533 16.7379 6.07996 16.7379H12.6006C15.2686 16.7379 16.7374 15.269 16.7374 12.6011V12.5986L16.7609 8.4383C16.7609 5.59022 15.7839 4.47998 13.2743 4.47998H10.903C10.1078 4.47915 9.34868 4.09957 8.87106 3.46443L8.10605 2.4472C7.86556 2.1246 7.48096 1.93356 7.07876 1.93272ZM13.0064 10.9091C13.3532 10.9091 13.6348 11.1907 13.6348 11.5376C13.6348 11.8845 13.3532 12.166 13.0064 12.166H5.68715C5.34025 12.166 5.05871 11.8845 5.05871 11.5376C5.05871 11.1907 5.34025 10.9091 5.68715 10.9091H13.0064Z" fill="#727190"/>
</svg>
