<svg width="18" height="18" viewBox="0 0 18 18" fill="none" xmlns="http://www.w3.org/2000/svg">
<path d="M15.8173 4.22053C15.0542 4.22053 14.4356 3.60189 14.4356 2.83876C14.4356 2.07564 15.0542 1.457 15.8173 1.457C16.5805 1.457 17.1991 2.07564 17.1991 2.83876C17.1991 3.60189 16.5805 4.22053 15.8173 4.22053Z" stroke="#727191" stroke-width="1.5"/>
<path fill-rule="evenodd" clip-rule="evenodd" d="M2.39496 9.23407C2.39496 10.9553 2.48915 12.2362 2.70411 13.2034C2.91529 14.1537 3.22258 14.7069 3.58589 15.0702C3.9492 15.4335 4.50244 15.7408 5.45267 15.952C6.41994 16.1669 7.70075 16.2611 9.42203 16.2611C11.1433 16.2611 12.4241 16.1669 13.3914 15.952C14.3416 15.7408 14.8949 15.4335 15.2582 15.0702C15.6215 14.7069 15.9288 14.1537 16.1399 13.2034C16.3549 12.2362 16.4491 10.9553 16.4491 9.23407C16.4491 7.51279 16.3549 6.23198 16.1399 5.26471C16.116 5.15692 16.0908 5.05424 16.0644 4.95636C16.6023 4.89427 17.0793 4.63195 17.4188 4.24583C17.8099 5.47364 17.9491 7.09879 17.9491 9.23407C17.9491 16.2561 16.4441 17.7611 9.42203 17.7611C2.39999 17.7611 0.894958 16.2561 0.894958 9.23407C0.894958 2.21202 2.39999 0.706997 9.42203 0.706997C11.5573 0.706997 13.1825 0.846161 14.4103 1.2373C14.0241 1.57681 13.7618 2.05375 13.6997 2.59167C13.6019 2.5653 13.4992 2.54011 13.3914 2.51615C12.4241 2.30118 11.1433 2.207 9.42203 2.207C7.70075 2.207 6.41994 2.30118 5.45267 2.51615C4.50244 2.72733 3.9492 3.03461 3.58589 3.39793C3.22258 3.76124 2.91529 4.31448 2.70411 5.26471C2.48915 6.23198 2.39496 7.51279 2.39496 9.23407Z" fill="#727191"/>
<path d="M5.15849 10.6552C5.15849 10.6552 7.12632 5.68112 9.42205 9.23406C11.7178 12.787 13.6856 7.81289 13.6856 7.81289" stroke="#727191" stroke-width="1.5" stroke-linecap="round" stroke-linejoin="round"/>
</svg>
